<svg width="200" height="200" viewBox="0 0 200 200" fill="none" xmlns="http://www.w3.org/2000/svg">
<path d="M70.6081 57.638V20.097C70.6081 16.179 75.3061 13 81.0971 13H119.73C125.522 13 130.217 16.179 130.217 20.097V57.637V64.796H139.905C144.256 64.796 146.614 67.999 146.614 69.846C146.614 72.955 141.562 75.784 137.92 78.977C127.337 88.267 118.237 96.549 106.457 105.616C103.431 107.945 97.6451 108.103 94.3721 105.616C82.5071 96.599 73.4911 88.267 62.9091 78.977C59.2641 75.784 54.2151 72.956 54.2151 69.846C54.2151 67.999 56.5731 64.796 60.9231 64.796H70.6091L70.6081 57.638Z" fill="#E73AFC"/>
<path d="M171.821 142.486V167.957C171.821 178.477 163.296 187.001 152.776 187.001H48.096C37.577 187.001 29.052 178.477 29.052 167.957V73.4312C29.052 62.9142 37.577 54.3872 48.096 54.3872H152.776C163.296 54.3872 171.821 62.9142 171.821 73.4312V142.486Z" fill="url(#paint0_linear_2864_89)"/>
<path d="M29 146.685C48.779 142.903 73.528 140.655 100.384 140.655C127.238 140.655 151.988 142.903 171.771 146.685V167.956C171.771 178.476 163.246 187 152.727 187H48.044C37.524 187 29 178.476 29 167.956V146.685Z" fill="url(#paint1_linear_2864_89)"/>
<path d="M98.083 154.686C98.083 153.357 99.524 152.279 101.302 152.279H154.431C156.208 152.279 157.649 153.357 157.649 154.686V172.949C157.649 174.281 156.208 175.359 154.431 175.359H101.302C99.522 175.359 98.083 174.281 98.083 172.949V154.686ZM48.407 102.949V112.382H63.414V102.949H48.407ZM42.7581 101.287C42.7581 99.9569 44.2001 98.8779 45.9781 98.8779H154.789C156.566 98.8779 158.009 99.9569 158.009 101.287V114.046C158.009 115.374 156.567 116.452 154.789 116.452H45.9781C44.2011 116.452 42.7581 115.374 42.7581 114.046V101.287ZM42.7581 125.112C42.7581 123.781 44.2001 122.704 45.9781 122.704H84.4231C86.1981 122.704 87.64 123.781 87.64 125.112V172.949C87.64 174.281 86.1991 175.359 84.4231 175.359H45.9781C44.2011 175.359 42.7581 174.281 42.7581 172.949V125.112ZM98.083 125.112C98.083 123.781 99.524 122.704 101.302 122.704H154.431C156.208 122.704 157.649 123.781 157.649 125.112V143.375C157.649 144.705 156.208 145.783 154.431 145.783H101.302C99.522 145.783 98.083 144.705 98.083 143.375V125.112Z" fill="#83E4ED"/>
<path d="M70.6081 54.3862H130.217V57.6373V64.7963H139.905C144.256 64.7963 146.614 67.9993 146.614 69.8463C146.614 72.9553 141.562 75.7842 137.92 78.9772C127.337 88.2672 118.237 96.5493 106.457 105.616C103.431 107.945 97.6451 108.103 94.3721 105.616C82.5071 96.5993 73.4911 88.2672 62.9091 78.9772C59.2641 75.7842 54.2151 72.9563 54.2151 69.8463C54.2151 67.9993 56.5731 64.7963 60.9231 64.7963H70.6091V57.6382L70.6081 54.3862Z" fill="url(#paint2_linear_2864_89)"/>
<defs>
<linearGradient id="paint0_linear_2864_89" x1="27.2189" y1="140.484" x2="173.661" y2="100.905" gradientUnits="userSpaceOnUse">
<stop stop-color="#00DBDB"/>
<stop offset="1" stop-color="#3647D3"/>
</linearGradient>
<linearGradient id="paint1_linear_2864_89" x1="29.6824" y1="160.296" x2="168.794" y2="169.726" gradientUnits="userSpaceOnUse">
<stop stop-color="#1B2BBB"/>
<stop offset="0.6138" stop-color="#0D6DD2"/>
<stop offset="0.9677" stop-color="#068FDE"/>
</linearGradient>
<linearGradient id="paint2_linear_2864_89" x1="54.1655" y1="81.4313" x2="147.021" y2="79.8839" gradientUnits="userSpaceOnUse">
<stop stop-color="#4427E9"/>
<stop offset="1" stop-color="#F83CFE"/>
</linearGradient>
</defs>
</svg>
